# xmcd CD database file
#
# Track frame offsets:
#	150
#	14009
#	30376
#	45803
#	61723
#	79109
#	96344
#	109151
#	132221
#	148888
#	166162
#	181476
#	195308
#	211585
#	234797
#	249522
#	269939
#	288840
#	303635
#
# Disc length: 4305 seconds
#
# Revision: 2
# Processed by: cddbd v1.4b41PL1 Copyright (c) Steve Scherf et al.
# Submitted via: Feurio! 1.51.5ß - http://www.feurio.com
#
DISCID=0010cf13
DTITLE=Ian Tyson - Unbekannte CD #FC10C9132AD19B6F
DYEAR=1900
DGENRE=
TTITLE0=Track: 1
TTITLE1=Track: 2
TTITLE2=Track: 3
TTITLE3=Track: 4
TTITLE4=Track: 5
TTITLE5=Track: 6
TTITLE6=Track: 7
TTITLE7=Track: 8
TTITLE8=Track: 9
TTITLE9=Track: 10
TTITLE10=Track: 11
TTITLE11=Track: 12
TTITLE12=Track: 13
TTITLE13=Track: 14
TTITLE14=Track: 15
TTITLE15=Track: 16
TTITLE16=Track: 17
TTITLE17=Track: 18
TTITLE18=Track: 19
EXTD=
EXTT0=
EXTT1=
EXTT2=
EXTT3=
EXTT4=
EXTT5=
EXTT6=
EXTT7=
EXTT8=
EXTT9=
EXTT10=
EXTT11=
EXTT12=
EXTT13=
EXTT14=
EXTT15=
EXTT16=
EXTT17=
EXTT18=
PLAYORDER=
